<svg xmlns="http://www.w3.org/2000/svg" xmlns:xlink="http://www.w3.org/1999/xlink" width="1080" zoomAndPan="magnify" viewBox="0 0 810 809.999993" height="1080" preserveAspectRatio="xMidYMid meet" version="1.0"><defs><clipPath id="6bf04f333f"><path d="M 19.585938 20 L 790.585938 20 L 790.585938 790.585938 L 19.585938 790.585938 Z M 19.585938 20 " clip-rule="nonzero"/></clipPath></defs><rect x="-81" width="972" fill="#ffffff" y="-80.999999" height="971.999992" fill-opacity="1"/><rect x="-81" width="972" fill="#ffffff" y="-80.999999" height="971.999992" fill-opacity="1"/><g clip-path="url(#6bf04f333f)"><path fill="#004aad" d="M 146.652344 21.167969 C 103.066406 25.382812 62.191406 51.125 39.082031 88.988281 C 30.875 102.464844 24.253906 119.324219 21.167969 134.53125 C 19.585938 142.132812 19.585938 142.660156 19.585938 406.125 C 19.585938 668.613281 19.585938 670.117188 21.089844 677.644531 C 32.457031 733.125 76.945312 777.6875 132.273438 788.828125 C 139.875 790.410156 140.554688 790.410156 404.246094 790.410156 C 667.9375 790.410156 668.613281 790.410156 676.214844 788.828125 C 737.265625 776.558594 783.257812 725.296875 789.65625 662.515625 C 790.710938 651.675781 790.710938 160.578125 789.65625 149.738281 C 786.195312 115.9375 772.191406 86.355469 748.332031 62.417969 C 724.242188 38.402344 694.28125 24.328125 660.558594 21.089844 C 650.398438 20.1875 156.585938 20.1875 146.652344 21.167969 Z M 664.925781 28.996094 C 695.863281 33.058594 723.566406 47.136719 745.242188 69.71875 C 763.308594 88.539062 774.675781 110.367188 780.472656 136.941406 L 782.503906 146.425781 L 782.503906 665.828125 L 780.472656 675.3125 C 774.300781 703.765625 761.277344 727.328125 741.027344 746.75 C 722.210938 764.816406 700.378906 776.183594 673.808594 781.980469 L 664.324219 784.011719 L 144.167969 784.011719 L 134.683594 781.980469 C 108.109375 776.183594 86.28125 764.816406 67.460938 746.75 C 44.878906 725.070312 30.800781 697.367188 26.738281 666.429688 C 25.757812 659.203125 25.605469 642.492188 25.605469 560.214844 L 25.605469 462.660156 L 29.597656 469.734375 C 31.855469 473.648438 36.824219 482.457031 40.664062 489.304688 C 56.695312 517.835938 56.996094 518.289062 61.363281 520.246094 C 66.933594 522.804688 72.957031 521.75 76.945312 517.460938 C 78.074219 516.253906 80.632812 511.0625 82.742188 505.941406 C 86.957031 495.480469 88.238281 493.597656 89.441406 495.855469 C 92.074219 500.671875 94.109375 516.105469 94.109375 531.007812 C 94.109375 540.871094 92.378906 569.625 90.796875 587.015625 L 89.816406 597.777344 L 85.601562 602.070312 C 78.148438 609.671875 76.417969 616.972656 80.257812 624.652344 C 82.441406 629.09375 85.527344 631.726562 90.417969 633.535156 C 100.054688 636.996094 115.109375 629.394531 130.769531 613.285156 C 158.996094 584.152344 179.394531 538.160156 185.945312 489.082031 C 187.601562 476.132812 186.546875 472.746094 180.601562 472.746094 C 176.007812 472.746094 174.203125 475.003906 173.523438 481.476562 C 171.417969 503.535156 164.414062 530.257812 155.082031 552.160156 C 144.769531 576.25 128.507812 599.585938 113.679688 611.480469 C 102.464844 620.4375 94.785156 623.148438 92.152344 619.15625 C 90.34375 616.445312 91.699219 613.8125 97.570312 608.316406 C 100.207031 605.832031 102.390625 603.425781 102.390625 602.820312 C 102.390625 602.296875 103.066406 594.917969 103.894531 586.410156 C 107.28125 550.730469 107.808594 515.578125 105.097656 502.480469 C 103.519531 494.800781 99.378906 486.21875 95.992188 483.585938 C 91.097656 479.898438 85.152344 479.898438 80.785156 483.585938 C 77.925781 485.996094 74.160156 492.394531 70.773438 500.75 C 69.191406 504.585938 67.609375 507.824219 67.234375 507.898438 C 66.558594 508.125 66.480469 508.050781 60.609375 497.964844 C 49.546875 478.917969 34.640625 451.367188 34.640625 450.085938 C 34.640625 446.550781 42.769531 428.859375 49.09375 418.699219 C 65.351562 392.652344 84.625 379.027344 105.398438 379.101562 C 121.433594 379.179688 133.476562 386.179688 139.648438 398.976562 C 148.15625 416.890625 147.554688 463.410156 137.84375 538.988281 C 136.714844 547.871094 135.886719 555.324219 136.035156 555.550781 C 137.167969 556.902344 141.984375 543.429688 145.671875 528.523438 C 150.1875 510.308594 152.523438 497.511719 154.78125 478.242188 L 156.738281 461.832031 L 161.328125 454.304688 C 163.8125 450.164062 169.910156 440.152344 174.878906 432.097656 C 179.847656 424.042969 185.644531 414.558594 187.828125 411.019531 C 192.191406 403.867188 197.539062 395.285156 206.945312 380.609375 C 210.410156 375.1875 214.324219 368.941406 215.679688 366.832031 C 216.957031 364.648438 218.3125 363.070312 218.539062 363.371094 C 218.839844 363.597656 219.066406 387.15625 219.066406 415.6875 L 219.066406 467.476562 L 364.046875 467.476562 L 364.949219 459.875 C 366.832031 443.613281 374.433594 427.65625 385.652344 416.136719 C 395.511719 406.050781 406.652344 400.027344 419.074219 398.148438 L 425.246094 397.242188 L 425.171875 369.84375 C 425.019531 351.476562 424.71875 342.519531 424.191406 342.519531 C 422.386719 342.59375 417.34375 346.132812 415.761719 348.464844 C 414.105469 350.949219 414.03125 351.476562 414.03125 370.070312 L 414.03125 389.039062 L 408.6875 390.695312 C 402.890625 392.425781 391.296875 398.222656 388.664062 400.632812 C 386.707031 402.4375 386.707031 402.363281 385.425781 393.328125 C 384.972656 390.015625 382.414062 374.058594 379.78125 357.949219 C 377.070312 341.765625 373.910156 321.96875 372.628906 313.914062 C 371.347656 305.859375 368.640625 289.148438 366.53125 276.800781 C 364.5 264.457031 362.84375 253.917969 362.84375 253.46875 C 362.84375 252.789062 377.972656 252.5625 426.753906 252.5625 C 461.90625 252.5625 490.886719 252.789062 491.113281 253.015625 C 491.339844 253.242188 490.433594 260.316406 489.003906 268.824219 C 487.574219 277.253906 483.8125 300.0625 480.648438 319.558594 C 470.109375 384.597656 467.402344 400.78125 467.175781 401.007812 C 467.101562 401.160156 464.238281 399.578125 460.851562 397.546875 C 455.507812 394.382812 443.3125 389.191406 441.054688 389.191406 C 440.679688 389.191406 440.378906 381.738281 440.378906 370.371094 C 440.378906 355.542969 440.152344 351.023438 439.324219 349.445312 C 437.667969 346.359375 434.203125 343.347656 431.496094 342.820312 L 429.085938 342.292969 L 429.085938 397.320312 L 433.375 397.847656 C 455.507812 400.632812 476.207031 418.398438 485.242188 442.484375 L 487.726562 449.035156 L 492.617188 449.257812 C 495.328125 449.410156 497.585938 449.257812 497.585938 448.957031 C 497.585938 445.195312 490.132812 428.03125 485.917969 422.234375 C 484.488281 420.203125 483.511719 418.546875 483.886719 418.546875 C 484.1875 418.546875 486.597656 419.222656 489.304688 420.050781 C 492.015625 420.878906 494.273438 421.558594 494.351562 421.558594 C 494.425781 421.558594 494.953125 420.128906 495.628906 418.320312 C 496.308594 416.589844 499.996094 406.503906 503.984375 395.964844 C 507.898438 385.425781 511.136719 376.542969 511.136719 376.316406 C 511.136719 375.789062 503.609375 372.402344 503.230469 372.78125 C 502.855469 373.230469 498.339844 384.972656 493.898438 397.09375 C 491.488281 403.640625 489.082031 409.210938 488.628906 409.363281 C 488.027344 409.589844 477.789062 406.203125 476.734375 405.375 C 476.585938 405.375 476.886719 403.265625 477.261719 400.78125 C 477.714844 398.375 480.046875 383.617188 482.53125 368.113281 C 485.015625 352.605469 488.101562 333.785156 489.304688 326.335938 C 490.511719 318.882812 492.769531 305.183594 494.199219 295.847656 C 495.703125 286.511719 497.058594 278.761719 497.210938 278.609375 C 497.4375 278.457031 499.015625 278.835938 500.75 279.511719 C 502.554688 280.191406 510.007812 282.976562 517.382812 285.683594 C 545.386719 296.074219 592.886719 315.496094 607.640625 322.570312 L 610.351562 323.925781 L 607.714844 329.644531 C 606.285156 332.808594 603.953125 337.925781 602.597656 341.089844 C 601.242188 344.25 599.210938 348.691406 598.15625 350.875 C 597.101562 353.132812 593.1875 361.714844 589.5 369.996094 C 585.808594 378.273438 578.433594 394.683594 573.089844 406.503906 C 567.742188 418.320312 562.777344 429.386719 561.949219 431.195312 C 560.441406 434.65625 560.816406 434.582031 554.796875 432.472656 C 552.839844 431.796875 552.238281 431.195312 552.386719 430.140625 C 552.539062 429.3125 555.851562 420.203125 559.765625 409.816406 C 563.679688 399.425781 566.839844 390.769531 566.839844 390.542969 C 566.839844 389.265625 563.679688 389.492188 562.777344 390.84375 C 562.171875 391.671875 560.441406 392.800781 558.785156 393.328125 C 556.453125 394.15625 555.699219 394.910156 554.644531 397.546875 C 553.96875 399.351562 550.355469 408.761719 546.589844 418.472656 C 542.828125 428.105469 539.742188 436.3125 539.742188 436.6875 C 539.742188 437.066406 540.871094 437.816406 542.300781 438.417969 C 545.839844 439.851562 562.398438 445.496094 564.128906 445.796875 C 565.335938 445.949219 566.3125 444.515625 569.550781 437.367188 C 571.65625 432.625 573.765625 428.785156 574.066406 428.859375 C 574.894531 429.011719 626.234375 452.195312 636.621094 457.089844 C 639.253906 458.292969 642.039062 460.25 642.867188 461.53125 L 644.449219 463.710938 L 518.589844 463.710938 L 518.8125 468.378906 L 519.039062 473.121094 L 644.976562 473.347656 L 770.835938 473.5 L 770.988281 469.960938 C 771.515625 457.011719 770.011719 448.207031 766.621094 443.238281 C 763.160156 438.195312 752.847656 429.234375 747.726562 426.675781 C 743.738281 424.71875 742.382812 424.417969 739.148438 424.71875 C 736.136719 425.019531 734.628906 424.796875 732.824219 423.742188 L 730.488281 422.3125 L 730.640625 414.632812 C 730.714844 408.535156 731.09375 406.125 732.371094 403.492188 C 734.40625 399.050781 734.40625 392.652344 732.371094 386.179688 L 730.714844 381.210938 L 732.75 377.296875 C 735.382812 372.101562 735.835938 367.960938 734.480469 362.691406 C 733.5 359.003906 733.5 357.949219 734.480469 354.410156 C 735.683594 349.972656 735.308594 345.152344 733.652344 341.839844 C 732.371094 339.433594 723.488281 330.925781 717.617188 326.558594 C 715.433594 324.980469 713.175781 322.570312 712.574219 321.214844 C 712.046875 319.859375 710.316406 316.925781 708.734375 314.667969 C 705.949219 310.753906 705.875 310.226562 705.722656 304.128906 C 705.648438 299.160156 705.273438 297.050781 703.992188 294.566406 C 702.109375 291.03125 699.175781 288.394531 696.238281 287.792969 C 694.507812 287.492188 694.207031 286.964844 693.832031 284.105469 C 693.304688 278.835938 690.441406 275.296875 684.496094 272.363281 C 680.355469 270.328125 678.550781 269.878906 674.859375 269.953125 C 670.722656 269.953125 669.367188 270.480469 661.539062 274.621094 C 656.71875 277.179688 652.65625 279.285156 652.429688 279.285156 C 652.277344 279.285156 651.902344 274.621094 651.675781 268.898438 C 649.117188 215.828125 648.664062 208.074219 647.835938 207.324219 C 647.386719 206.871094 638.730469 203.410156 628.566406 199.644531 C 601.84375 189.707031 536.203125 165.242188 526.945312 161.78125 L 519.039062 158.84375 L 475.304688 158.84375 L 471.316406 151.316406 L 467.402344 143.789062 L 456.183594 143.789062 C 446.171875 143.789062 444.96875 143.640625 444.59375 142.433594 C 444.441406 141.757812 442.335938 132.949219 439.925781 122.9375 L 435.558594 104.648438 L 437.515625 102.613281 C 440.152344 99.753906 441.128906 97.644531 441.128906 94.859375 C 441.128906 91.925781 439.472656 88.6875 436.914062 86.65625 C 434.128906 84.472656 427.804688 84.472656 425.019531 86.65625 C 419.75 90.796875 419.375 98.097656 424.191406 102.539062 L 426.148438 104.421875 L 421.558594 122.789062 C 419 132.875 416.816406 141.757812 416.589844 142.433594 C 416.214844 143.640625 415.007812 143.789062 404.320312 143.789062 L 392.5 143.789062 L 389.339844 149.359375 C 385.878906 155.382812 385.199219 156.136719 382.414062 156.964844 C 381.359375 157.265625 375.488281 159.070312 369.242188 161.105469 C 363.070312 163.0625 352.378906 166.449219 345.53125 168.632812 C 338.679688 170.738281 325.355469 175.03125 315.796875 178.039062 C 272.964844 191.742188 241.199219 201.902344 240.59375 202.054688 C 240.21875 202.128906 237.433594 211.6875 234.347656 223.207031 C 231.335938 234.796875 227.121094 250.53125 225.089844 258.210938 C 223.054688 265.886719 218.839844 281.921875 215.679688 293.964844 C 212.515625 305.933594 209.429688 317.601562 208.828125 319.859375 C 208.226562 322.117188 207.851562 324 207.925781 324.074219 C 208.074219 324.152344 215.453125 326.109375 224.335938 328.441406 C 256.929688 337.023438 255.199219 336.421875 256.328125 340.035156 L 256.78125 341.765625 L 216.882812 341.765625 L 214.097656 346.054688 C 199.34375 369.015625 195.730469 374.585938 192.34375 380.15625 C 190.160156 383.695312 183.914062 393.628906 178.417969 402.363281 C 172.921875 411.019531 166.375 421.632812 163.8125 425.847656 C 158.695312 434.28125 158.242188 434.28125 158.167969 426.074219 C 158.015625 414.332031 154.628906 399.277344 150.339844 391.070312 C 146.726562 384.296875 137.242188 375.113281 130.242188 371.726562 C 120.832031 367.207031 116.839844 366.304688 105.777344 366.382812 C 93.730469 366.457031 87.332031 367.960938 76.945312 373.304688 C 58.652344 382.792969 44.050781 399.125 30.953125 424.871094 L 25.605469 435.410156 L 25.605469 294.644531 C 25.605469 144.617188 25.605469 147.101562 29.296875 131.671875 C 38.554688 92.753906 66.03125 58.730469 102.011719 41.414062 C 115.410156 34.941406 128.585938 30.953125 143.039062 28.996094 C 148.757812 28.242188 200.246094 28.015625 403.265625 27.941406 C 623.824219 27.867188 657.472656 28.015625 664.925781 28.996094 Z M 432.773438 119.101562 C 433.675781 122.9375 434.355469 126.328125 434.355469 126.628906 C 434.355469 127.003906 432.699219 127.230469 430.589844 127.230469 C 428.558594 127.230469 426.828125 127.15625 426.828125 127.003906 C 426.828125 126.929688 427.503906 124.292969 428.332031 121.207031 C 429.160156 118.121094 429.839844 114.808594 429.839844 113.832031 C 429.839844 110.066406 431.269531 112.550781 432.773438 119.101562 Z M 436.539062 136.789062 C 436.914062 138.371094 437.515625 140.554688 437.816406 141.683594 L 438.269531 143.789062 L 430.589844 143.789062 C 423.664062 143.789062 422.988281 143.640625 423.363281 142.433594 C 423.589844 141.757812 424.117188 139.574219 424.644531 137.542969 L 425.472656 134.003906 L 435.785156 134.003906 Z M 431.34375 169.683594 C 431.34375 186.09375 431.269531 186.621094 429.761719 187.074219 C 427.730469 187.75 425.320312 191.816406 425.320312 194.601562 C 425.320312 196.710938 424.71875 197.234375 418.019531 201.074219 C 413.957031 203.410156 406.578125 207.625 401.609375 210.484375 C 378.726562 223.582031 349.667969 239.917969 349.445312 239.765625 C 349.292969 239.617188 350.195312 237.886719 351.402344 235.929688 C 352.605469 233.894531 358.628906 223.28125 364.726562 212.292969 C 370.820312 201.300781 378.652344 187.449219 382.039062 181.429688 C 385.425781 175.40625 390.320312 166.675781 392.953125 162.082031 L 397.621094 153.578125 L 413.957031 153.351562 C 422.914062 153.273438 430.441406 153.125 430.816406 152.972656 C 431.117188 152.898438 431.34375 160.425781 431.34375 169.683594 Z M 482.382812 195.355469 C 494.046875 218.464844 503.382812 237.585938 503.230469 237.734375 C 503.15625 237.886719 498.792969 235.175781 493.671875 231.710938 C 488.554688 228.25 474.777344 219.214844 463.109375 211.539062 C 442.03125 197.6875 441.882812 197.613281 441.882812 194.976562 C 441.882812 191.816406 439.550781 187.75 437.441406 187.074219 C 435.9375 186.621094 435.859375 186.09375 435.859375 169.761719 L 435.859375 152.824219 L 448.582031 153.050781 L 461.304688 153.199219 Z M 521.675781 170.289062 L 526.566406 172.167969 L 526.792969 185.042969 C 526.867188 192.191406 526.792969 197.988281 526.492188 197.988281 C 526.265625 197.988281 517.382812 192.492188 506.769531 185.71875 C 496.082031 178.945312 485.84375 172.46875 483.886719 171.265625 C 481.855469 169.988281 480.273438 168.855469 480.273438 168.632812 C 480.273438 168.40625 488.476562 168.253906 498.566406 168.332031 C 516.027344 168.40625 517.007812 168.480469 521.675781 170.289062 Z M 368.113281 173.222656 C 367.058594 174.050781 355.917969 183.160156 343.347656 193.320312 C 311.503906 219.214844 299.160156 229.304688 292.910156 234.421875 C 287.265625 239.089844 285.308594 239.464844 285.308594 235.851562 C 285.308594 233.667969 287.191406 211.539062 288.167969 202.203125 L 288.695312 197.085938 L 299.234375 193.699219 C 305.03125 191.890625 314.890625 188.730469 321.066406 186.699219 C 327.3125 184.742188 338.980469 180.976562 347.035156 178.417969 C 355.089844 175.933594 363.070312 173.375 364.726562 172.773438 C 369.167969 171.265625 370.296875 171.417969 368.113281 173.222656 Z M 370.671875 181.878906 C 361.714844 197.914062 333.636719 248.199219 332.128906 251.058594 C 331.378906 252.5625 331.605469 252.5625 342.21875 252.414062 L 353.058594 252.261719 L 353.058594 253.996094 C 353.058594 255.5 351.777344 256.253906 342.667969 260.015625 L 332.28125 264.308594 L 313.914062 256.628906 C 303.75 252.488281 294.417969 248.648438 293.0625 248.273438 C 291.105469 247.597656 290.652344 246.992188 290.351562 244.734375 C 290.203125 243.230469 290.050781 242.023438 290.125 241.949219 C 290.203125 241.875 294.792969 238.1875 300.4375 233.667969 C 309.398438 226.441406 332.207031 207.925781 347.109375 195.730469 C 349.894531 193.472656 357.046875 187.601562 363.144531 182.707031 C 369.167969 177.816406 374.285156 173.449219 374.585938 173.074219 C 374.8125 172.621094 375.1875 172.46875 375.339844 172.621094 C 375.566406 172.847656 373.457031 176.988281 370.671875 181.878906 Z M 535.074219 175.105469 C 536.578125 175.707031 544.632812 178.792969 552.914062 181.804688 C 561.195312 184.890625 570.527344 188.355469 573.613281 189.558594 L 579.261719 191.742188 L 579.488281 209.355469 L 579.636719 226.96875 L 577.304688 227.875 C 575.046875 228.777344 574.519531 228.625 569.324219 225.3125 C 564.054688 222 563.828125 221.699219 563.828125 218.914062 C 563.828125 213.042969 557.207031 209.128906 551.710938 211.839844 L 549.300781 213.042969 L 540.417969 207.246094 L 531.460938 201.527344 L 531.460938 187.675781 C 531.460938 180.074219 531.613281 173.902344 531.835938 173.902344 C 532.0625 173.902344 533.492188 174.425781 535.074219 175.105469 Z M 513.242188 194.601562 L 526.945312 203.484375 L 526.945312 279.136719 L 519.640625 276.351562 C 515.578125 274.769531 509.253906 272.363281 505.566406 271.007812 L 498.941406 268.445312 L 499.46875 263.929688 C 499.695312 261.371094 500.296875 257.683594 500.75 255.726562 L 501.5 252.035156 L 511.589844 252.339844 C 521.375 252.5625 522.878906 252.261719 520.996094 250.304688 C 520.246094 249.476562 484.035156 177.289062 484.035156 176.609375 C 484.035156 176.082031 494.046875 182.257812 513.242188 194.601562 Z M 607.488281 202.203125 C 618.027344 206.117188 629.546875 210.484375 633.082031 211.839844 L 639.480469 214.324219 L 640.386719 233.066406 C 640.910156 243.378906 641.964844 264.984375 642.867188 281.167969 C 643.695312 297.277344 644.523438 314.890625 644.824219 320.3125 C 645.050781 325.65625 645.351562 330.925781 645.578125 331.980469 C 646.40625 335.96875 644.300781 331.828125 637.375 315.796875 C 633.460938 306.6875 626.761719 291.332031 622.621094 281.769531 C 618.40625 272.136719 615.015625 263.855469 615.015625 263.328125 C 615.015625 262.800781 615.542969 261.671875 616.144531 260.917969 C 616.75 260.089844 617.273438 257.984375 617.273438 256.253906 C 617.273438 250.457031 611.328125 246.542969 605.609375 248.421875 C 602.972656 249.328125 602.820312 249.25 596.347656 244.132812 C 590.101562 239.164062 589.800781 238.789062 590.023438 236.230469 C 590.328125 232.765625 588.519531 229.226562 585.660156 227.722656 L 583.402344 226.519531 L 583.402344 210.484375 C 583.402344 201.675781 583.625 194.300781 583.851562 194 C 584.078125 193.773438 585.207031 193.925781 586.335938 194.300781 C 587.390625 194.753906 596.949219 198.289062 607.488281 202.203125 Z M 283.804688 199.644531 C 283.726562 202.503906 280.867188 236.53125 280.640625 236.757812 C 280.566406 236.832031 279.738281 237.132812 278.910156 237.433594 C 277.628906 237.808594 274.921875 235.402344 263.929688 223.882812 C 256.476562 216.128906 250.757812 209.65625 251.132812 209.355469 C 251.511719 208.980469 257.382812 207.023438 264.230469 204.914062 C 271.082031 202.804688 278.007812 200.546875 279.664062 199.945312 C 283.503906 198.589844 283.804688 198.515625 283.804688 199.644531 Z M 429.386719 202.128906 C 431.34375 203.558594 435.859375 203.558594 437.894531 202.128906 C 439.472656 201 440 201.300781 448.429688 206.796875 C 453.324219 209.957031 457.464844 212.667969 457.691406 212.894531 C 458.066406 213.195312 451.292969 219.742188 436.386719 233.59375 L 425.925781 243.15625 L 390.242188 243.15625 C 370.597656 243.15625 354.5625 242.851562 354.5625 242.550781 C 354.5625 242.25 361.636719 238.035156 370.21875 233.21875 C 378.800781 228.324219 394.984375 219.140625 406.125 212.742188 C 417.34375 206.34375 426.828125 201.074219 427.203125 201.074219 C 427.65625 201.074219 428.632812 201.527344 429.386719 202.128906 Z M 547.269531 219.066406 C 547.269531 222.226562 549.601562 226.292969 551.710938 226.96875 C 553.289062 227.421875 553.289062 227.796875 553.289062 258.285156 C 553.289062 275.222656 553.066406 289.074219 552.765625 289.074219 C 551.9375 289.074219 532.742188 281.394531 532.0625 280.867188 C 531.6875 280.492188 531.160156 215.378906 531.460938 206.871094 C 531.460938 206.570312 535 208.601562 539.363281 211.386719 C 546.890625 216.207031 547.269531 216.582031 547.269531 219.066406 Z M 255.800781 221.476562 C 260.242188 226.140625 266.339844 232.617188 269.425781 235.851562 C 273.792969 240.371094 274.84375 241.875 274.167969 242.550781 C 273.039062 243.679688 272.964844 247.292969 274.015625 249.175781 C 274.621094 250.382812 273.867188 251.585938 268.898438 256.855469 C 262.199219 263.929688 243.90625 283.578125 231.5625 296.824219 C 227.046875 301.71875 223.28125 305.558594 223.132812 305.40625 C 222.90625 305.257812 223.65625 301.945312 224.636719 298.03125 C 230.808594 274.542969 238.488281 245.414062 241.648438 233.367188 C 243.679688 225.691406 245.714844 218.011719 246.164062 216.207031 C 246.617188 214.472656 247.144531 213.042969 247.371094 213.042969 C 247.597656 213.042969 251.359375 216.882812 255.800781 221.476562 Z M 481.027344 228.25 C 490.8125 234.648438 499.542969 240.292969 500.445312 240.820312 C 501.351562 241.273438 502.101562 242.023438 502.101562 242.402344 C 502.101562 242.851562 489.230469 243.15625 467.476562 243.15625 C 448.429688 243.15625 432.847656 243.003906 432.847656 242.777344 C 432.847656 242.628906 434.429688 240.972656 436.386719 239.238281 C 438.269531 237.433594 444.667969 231.488281 450.464844 225.992188 C 456.484375 220.347656 461.53125 216.128906 462.207031 216.28125 C 462.808594 216.429688 471.316406 221.851562 481.027344 228.25 Z M 573.164062 234.496094 C 572.9375 235.402344 573.238281 237.359375 573.839844 238.863281 C 575.347656 242.328125 578.808594 244.207031 582.574219 243.605469 C 584.078125 243.304688 585.886719 243.078125 586.5625 242.929688 C 587.238281 242.851562 590.703125 244.960938 594.164062 247.671875 C 600.5625 252.5625 600.5625 252.5625 600.261719 255.574219 C 599.8125 259.261719 601.089844 261.824219 604.253906 263.855469 L 606.660156 265.359375 L 606.738281 288.46875 C 606.738281 302.773438 606.433594 311.65625 605.984375 311.65625 C 605.609375 311.65625 597.25 308.117188 587.390625 303.828125 C 577.53125 299.535156 566.914062 295.019531 563.828125 293.816406 L 558.183594 291.558594 L 557.957031 259.640625 L 557.808594 227.722656 L 559.839844 226.59375 C 561.871094 225.464844 562.097656 225.539062 567.742188 229.152344 C 572.636719 232.316406 573.539062 233.144531 573.164062 234.496094 Z M 306.160156 258.058594 C 313.914062 261.371094 321.59375 264.382812 323.171875 264.910156 C 324.679688 265.4375 325.957031 266.113281 325.957031 266.414062 C 325.957031 266.640625 321.667969 268.75 316.398438 270.929688 C 290.878906 281.695312 259.1875 295.171875 244.058594 301.644531 C 234.800781 305.558594 227.121094 308.644531 226.96875 308.492188 C 226.820312 308.34375 231.1875 303.449219 236.605469 297.652344 C 245.863281 287.792969 254.144531 278.910156 270.554688 261.296875 L 277.253906 254.070312 L 281.09375 254.296875 C 284.027344 254.445312 285.382812 254.144531 286.8125 252.941406 C 287.945312 252.035156 289.375 251.585938 290.351562 251.8125 C 291.253906 252.035156 298.332031 254.820312 306.160156 258.058594 Z M 614.867188 274.921875 C 621.792969 290.425781 637.375 326.335938 637.902344 327.992188 C 638.351562 329.421875 636.773438 328.667969 629.167969 323.925781 C 624.050781 320.765625 617.800781 317.226562 615.242188 315.945312 L 610.5 313.761719 L 610.5 290.125 C 610.5 277.105469 610.652344 266.488281 610.800781 266.488281 C 610.953125 266.488281 612.757812 270.328125 614.867188 274.921875 Z M 357.046875 278.683594 C 357.273438 279.664062 357.875 283.125 358.402344 286.4375 C 358.851562 289.75 361.261719 304.503906 363.746094 319.183594 C 366.15625 333.863281 369.167969 352.304688 370.371094 360.207031 C 375.867188 394.910156 375.789062 394.609375 374.738281 395.285156 C 373.382812 396.191406 371.875 396.113281 371.875 395.210938 C 371.875 394.535156 367.585938 382.488281 362.316406 368.640625 C 360.585938 363.972656 360.285156 363.597656 359.15625 364.574219 C 358.476562 365.25 354.261719 367.285156 349.667969 369.242188 C 345.152344 371.199219 341.3125 372.855469 341.164062 373.003906 C 340.9375 373.230469 347.9375 393.179688 350.722656 400.332031 C 351.625 402.511719 352.304688 404.394531 352.304688 404.546875 C 352.304688 405.296875 339.207031 410.265625 338.679688 409.738281 C 338.378906 409.4375 336.347656 404.394531 334.238281 398.597656 C 332.128906 392.800781 329.644531 386.101562 328.742188 383.695312 C 327.914062 381.359375 326.859375 379.402344 326.484375 379.402344 C 326.183594 379.402344 322.570312 380.832031 318.582031 382.566406 C 314.589844 384.296875 310.226562 386.027344 308.945312 386.480469 L 306.613281 387.308594 L 309.472656 394.835938 C 315.644531 411.246094 317.753906 417.34375 317.527344 418.320312 C 317.300781 419.449219 304.355469 425.019531 303.675781 424.34375 C 303.148438 423.890625 295.621094 406.652344 287.566406 387.683594 C 284.332031 380.003906 278.761719 366.984375 275.148438 358.703125 C 271.535156 350.421875 267.46875 340.9375 266.113281 337.625 C 264.757812 334.3125 262.425781 328.894531 260.917969 325.65625 C 259.414062 322.34375 258.285156 319.632812 258.359375 319.558594 C 258.511719 319.410156 261.824219 317.980469 265.738281 316.324219 C 273.640625 313.011719 283.878906 308.570312 302.621094 300.363281 C 309.472656 297.429688 323.246094 291.480469 333.335938 287.117188 C 343.421875 282.824219 352.53125 278.761719 353.660156 278.15625 C 356.371094 276.726562 356.59375 276.726562 357.046875 278.683594 Z M 679.753906 280.492188 C 684.347656 282.375 685.398438 285.460938 683.140625 290.804688 C 682.539062 292.308594 682.011719 294.039062 682.011719 294.644531 C 682.011719 296.148438 685.550781 297.128906 689.390625 296.75 C 691.496094 296.523438 693.152344 296.824219 694.433594 297.652344 C 696.238281 298.859375 696.316406 299.234375 696.316406 306.234375 C 696.316406 313.160156 696.464844 313.6875 698.648438 316.925781 C 699.851562 318.804688 701.585938 321.59375 702.414062 323.246094 L 703.992188 326.183594 L 701.058594 328.742188 C 699.476562 330.171875 694.660156 333.035156 690.367188 335.140625 C 680.429688 339.960938 676.441406 340.410156 663.945312 337.851562 L 655.289062 336.042969 L 654.761719 327.839844 C 652.878906 295.695312 652.65625 290.277344 653.183594 289.824219 C 654.988281 288.246094 673.355469 279.285156 674.9375 279.285156 C 675.914062 279.285156 678.097656 279.8125 679.753906 280.492188 Z M 715.511719 337.25 C 721.984375 342.367188 725.671875 346.660156 725.671875 348.917969 C 725.671875 349.972656 724.996094 352.90625 724.167969 355.316406 L 722.660156 359.832031 L 724.167969 362.84375 C 725.972656 366.382812 726.046875 368.941406 724.542969 371.875 C 723.1875 374.585938 721.082031 374.8125 717.617188 372.628906 C 713.628906 370.21875 712.726562 368.261719 713.628906 363.597656 C 714.003906 361.414062 714.382812 358.328125 714.382812 356.746094 L 714.382812 353.808594 L 710.84375 353.808594 C 703.917969 353.808594 687.582031 356.066406 683.214844 357.574219 C 672.378906 361.261719 660.710938 370.898438 656.34375 379.78125 C 653.183594 386.253906 652.804688 390.996094 654.835938 400.480469 L 656.34375 407.632812 L 651.675781 412.300781 C 649.117188 414.933594 646.859375 417.042969 646.558594 417.042969 C 646.257812 417.042969 645.804688 415.761719 645.578125 414.179688 C 645.277344 412.675781 644 406.578125 642.71875 400.707031 L 640.386719 390.09375 L 642.34375 383.769531 C 644.902344 375.640625 649.492188 366.304688 652.878906 362.390625 C 654.386719 360.660156 659.128906 356.894531 663.417969 354.035156 C 671.023438 348.839844 671.324219 348.765625 675.085938 349.144531 C 677.195312 349.292969 680.582031 349.066406 682.539062 348.617188 C 687.734375 347.261719 702.109375 340.109375 706.476562 336.570312 C 708.585938 334.914062 710.390625 333.5625 710.542969 333.5625 C 710.691406 333.484375 712.875 335.140625 715.511719 337.25 Z M 639.179688 355.84375 C 638.351562 357.800781 635.117188 366.078125 631.953125 374.132812 C 628.867188 382.1875 625.707031 390.015625 625.105469 391.523438 L 623.898438 394.234375 L 617.578125 390.769531 L 611.328125 387.308594 L 611.253906 376.167969 L 611.253906 365.101562 L 625.78125 358.101562 C 633.683594 354.1875 640.308594 351.324219 640.460938 351.625 C 640.609375 351.929688 640.007812 353.808594 639.179688 355.84375 Z M 263.253906 355.84375 C 264.757812 359.304688 270.253906 371.574219 272.210938 376.015625 C 272.363281 376.46875 268.222656 378.726562 262.953125 381.058594 C 257.605469 383.46875 247.972656 387.757812 241.5 390.695312 C 234.949219 393.554688 229.304688 395.964844 228.925781 395.964844 C 228.476562 395.964844 228.175781 387.082031 228.097656 373.757812 L 228.097656 351.550781 L 261.296875 351.550781 Z M 703.316406 367.207031 C 702.789062 370.898438 704.21875 373.683594 708.660156 377.746094 C 711.820312 380.683594 713.328125 381.585938 719.125 383.84375 C 721.832031 384.898438 724.167969 390.242188 724.167969 395.285156 C 724.167969 398.675781 723.867188 399.351562 720.78125 402.664062 C 718.898438 404.621094 717.390625 406.503906 717.390625 406.878906 C 717.390625 407.179688 718.296875 408.082031 719.347656 408.988281 C 721.15625 410.417969 721.304688 410.867188 721.003906 415.234375 C 720.554688 422.914062 715.886719 427.582031 708.8125 427.582031 C 704.519531 427.582031 689.238281 423.441406 687.582031 421.785156 C 686.980469 421.183594 686.527344 419.675781 686.527344 418.472656 C 686.527344 415.6875 684.042969 410.644531 681.410156 408.234375 C 678.171875 405.222656 675.164062 404.019531 670.042969 403.566406 L 665.226562 403.117188 L 663.796875 396.113281 L 662.367188 389.039062 L 664.398438 384.898438 C 666.957031 379.554688 669.816406 376.394531 675.613281 372.175781 C 683.667969 366.457031 689.164062 364.648438 699.476562 364.421875 L 703.691406 364.347656 Z M 602.21875 377.824219 L 602.21875 389.113281 L 595.292969 393.628906 C 591.457031 396.113281 588.21875 397.996094 588.066406 397.847656 C 587.917969 397.769531 590.402344 391.898438 593.5625 384.972656 C 596.726562 377.972656 599.886719 370.972656 600.488281 369.390625 C 601.167969 367.886719 601.84375 366.605469 601.996094 366.605469 C 602.070312 366.605469 602.21875 371.648438 602.21875 377.824219 Z M 280.039062 394.835938 C 290.878906 419.828125 294.492188 428.484375 294.191406 428.632812 C 293.515625 429.234375 290.125 430.816406 284.40625 433.152344 C 281.019531 434.582031 274.921875 437.066406 271.007812 438.722656 C 267.09375 440.378906 255.953125 444.96875 246.390625 448.882812 L 228.851562 456.035156 L 228.851562 406.652344 L 252.414062 396.113281 C 265.285156 390.320312 275.976562 385.652344 276.050781 385.726562 C 276.050781 385.726562 277.933594 389.867188 280.039062 394.835938 Z M 617.800781 400.027344 C 622.695312 402.210938 628.414062 404.847656 630.449219 405.824219 C 632.554688 406.804688 634.289062 407.632812 634.363281 407.632812 C 634.4375 407.707031 635.566406 412.75 636.847656 418.921875 C 638.878906 428.40625 639.105469 430.667969 638.425781 433.300781 C 637.976562 435.109375 637.601562 438.722656 637.601562 441.429688 C 637.601562 444.140625 637.375 446.398438 637.148438 446.398438 C 636.695312 446.398438 626.535156 441.957031 612.382812 435.484375 C 587.542969 424.191406 578.132812 419.675781 578.132812 419.148438 C 578.132812 416.890625 581.21875 413.652344 587.316406 409.4375 C 595.972656 403.417969 607.640625 395.964844 608.316406 395.964844 C 608.617188 395.964844 612.910156 397.769531 617.800781 400.027344 Z M 377.898438 407.332031 C 377.898438 408.910156 376.996094 410.792969 375.039062 413.203125 C 365.476562 424.71875 357.949219 440.453125 356.371094 452.269531 C 356.144531 454.304688 355.691406 456.410156 355.390625 456.863281 C 355.015625 457.464844 341.089844 457.613281 303 457.539062 L 251.207031 457.3125 L 272.585938 448.355469 C 284.332031 443.464844 302.472656 435.9375 312.785156 431.71875 C 323.171875 427.429688 341.765625 419.675781 354.1875 414.480469 C 366.605469 409.289062 376.996094 404.996094 377.371094 404.996094 C 377.671875 404.996094 377.898438 406.050781 377.898438 407.332031 Z M 672.980469 413.652344 C 677.042969 415.761719 678.699219 421.785156 676.441406 426.148438 C 675.914062 427.203125 673.355469 430.667969 670.871094 433.902344 C 665.753906 440.300781 664.324219 444.140625 665 449.710938 C 665.527344 454.453125 666.808594 456.261719 671.851562 459.574219 C 674.109375 461.078125 676.214844 462.734375 676.441406 463.109375 C 676.816406 463.636719 674.335938 463.789062 669.066406 463.5625 C 661.6875 463.335938 660.933594 463.1875 656.871094 460.703125 C 649.34375 456.109375 647.007812 451.519531 647.085938 441.882812 C 647.160156 436.539062 647.535156 434.730469 649.265625 431.117188 C 652.878906 423.363281 664.472656 412.523438 668.988281 412.523438 C 669.96875 412.523438 671.773438 413.050781 672.980469 413.652344 Z M 729.964844 433.375 C 734.328125 435.785156 735.15625 436.011719 737.039062 435.332031 C 741.628906 433.601562 748.027344 436.988281 755.253906 444.96875 C 758.867188 448.957031 759.621094 450.3125 760.601562 454.753906 C 761.277344 457.539062 761.804688 460.703125 761.804688 461.753906 L 761.804688 463.710938 L 694.207031 463.710938 L 684.347656 456.863281 C 677.796875 452.347656 674.335938 449.410156 674.03125 448.28125 C 673.507812 446.171875 674.785156 443.613281 679.078125 437.96875 C 680.882812 435.632812 682.765625 433.152344 683.140625 432.398438 C 683.894531 431.195312 684.195312 431.195312 688.183594 432.699219 C 695.109375 435.257812 704.144531 437.367188 708.585938 437.367188 C 713.703125 437.367188 716.863281 436.3125 721.15625 433.152344 C 723.039062 431.796875 724.695312 430.589844 724.769531 430.589844 C 724.917969 430.589844 727.253906 431.796875 729.964844 433.375 Z M 729.964844 433.375 " fill-opacity="1" fill-rule="nonzero"/></g><path fill="#004aad" d="M 417.71875 269.425781 C 409.738281 271.984375 401.308594 279.589844 397.621094 287.417969 C 395.8125 291.179688 395.589844 292.609375 395.589844 299.609375 C 395.589844 308.570312 396.71875 312.785156 400.78125 318.65625 C 413.128906 336.648438 439.246094 337.324219 453.398438 320.011719 C 457.089844 315.417969 459.269531 309.546875 459.722656 302.472656 C 460.625 290.125 455.507812 280.113281 444.515625 272.8125 C 437.441406 268.144531 426.226562 266.714844 417.71875 269.425781 Z M 421.183594 288.320312 L 422.6875 286.664062 L 423.96875 291.859375 C 424.71875 294.644531 425.320312 297.277344 425.320312 297.652344 C 425.320312 298.40625 420.429688 297.804688 415.988281 296.523438 L 412.976562 295.695312 L 414.859375 294.265625 L 416.664062 292.910156 L 411.847656 288.019531 C 407.03125 283.125 406.953125 283.050781 408.386719 281.546875 L 409.816406 279.964844 L 414.785156 284.933594 L 419.75 289.902344 Z M 447.378906 281.621094 C 447.300781 282.222656 446.851562 284.632812 446.398438 287.039062 L 445.496094 291.480469 L 443.765625 289.824219 L 442.109375 288.246094 L 437.59375 293.210938 L 433.074219 298.179688 L 431.34375 296.75 L 429.539062 295.320312 L 434.28125 290.277344 L 439.097656 285.308594 L 437.289062 283.878906 L 435.484375 282.449219 L 438.496094 281.921875 C 440.152344 281.621094 442.558594 281.09375 443.765625 280.792969 C 446.550781 280.039062 447.605469 280.265625 447.378906 281.621094 Z M 424.042969 303.976562 C 425.171875 305.183594 424.945312 305.632812 420.804688 310.148438 C 416.589844 314.667969 416.363281 315.042969 417.570312 316.324219 C 418.246094 317.074219 418.621094 317.828125 418.472656 317.980469 C 418.320312 318.128906 415.914062 318.730469 413.128906 319.410156 L 408.007812 320.539062 L 408.007812 318.804688 C 408.007812 315.871094 409.589844 309.398438 410.265625 309.398438 C 410.644531 309.398438 411.320312 310 411.695312 310.675781 C 412.375 311.882812 413.050781 311.429688 417.191406 307.289062 C 419.828125 304.730469 422.160156 302.621094 422.386719 302.621094 C 422.613281 302.621094 423.363281 303.222656 424.042969 303.976562 Z M 436.765625 303.527344 C 441.65625 304.578125 441.730469 304.65625 440 305.933594 C 438.644531 306.914062 438.796875 307.289062 443.238281 311.957031 C 445.796875 314.742188 447.90625 317.226562 447.90625 317.527344 C 447.90625 317.828125 447.226562 318.503906 446.324219 319.03125 C 444.894531 319.9375 444.367188 319.632812 440.300781 315.34375 L 435.9375 310.601562 L 434.054688 312.332031 L 432.246094 314.0625 L 431.34375 309.621094 C 430.890625 307.214844 430.289062 304.65625 430.140625 303.902344 C 429.6875 302.320312 431.042969 302.246094 436.765625 303.527344 Z M 436.765625 303.527344 " fill-opacity="1" fill-rule="nonzero"/><path fill="#004aad" d="M 511.136719 318.957031 C 508.425781 325.808594 506.167969 331.90625 506.015625 332.507812 C 505.867188 333.109375 506.921875 334.011719 508.578125 334.691406 C 511.285156 335.820312 511.363281 335.820312 513.847656 333.410156 C 517.007812 330.398438 519.640625 330.25 525.664062 332.65625 C 528.074219 333.636719 530.105469 334.3125 530.257812 334.164062 C 531.234375 332.957031 537.933594 314.589844 537.484375 314.289062 C 536.355469 313.539062 517.460938 306.386719 516.78125 306.386719 C 516.40625 306.386719 513.847656 312.03125 511.136719 318.957031 Z M 511.136719 318.957031 " fill-opacity="1" fill-rule="nonzero"/><path fill="#004aad" d="M 566.238281 327.238281 C 565.335938 329.042969 559.386719 344.175781 559.164062 345.378906 C 559.011719 345.90625 561.796875 347.5625 565.9375 349.445312 C 573.238281 352.605469 574.894531 354.1875 575.796875 358.476562 C 576.097656 359.757812 576.625 360.960938 577.078125 361.113281 C 577.53125 361.261719 579.636719 356.894531 581.820312 351.402344 C 584.003906 345.90625 586.414062 339.808594 587.164062 337.777344 L 588.671875 334.164062 L 586.5625 333.410156 C 581.972656 331.527344 567.292969 325.957031 567.066406 325.957031 C 566.992188 325.957031 566.613281 326.558594 566.238281 327.238281 Z M 566.238281 327.238281 " fill-opacity="1" fill-rule="nonzero"/><path fill="#004aad" d="M 515.652344 338.152344 C 513.46875 341.765625 504.363281 364.046875 504.363281 365.777344 C 504.363281 367.886719 505.941406 368.789062 520.167969 374.511719 C 527.019531 377.296875 537.785156 381.738281 544.03125 384.371094 C 550.355469 387.082031 556.300781 389.191406 557.207031 389.039062 C 559.238281 388.738281 562.097656 383.316406 567.894531 368.941406 C 572.863281 356.59375 573.390625 357.347656 556.300781 350.195312 C 533.417969 340.710938 520.621094 335.742188 518.8125 335.742188 C 517.761719 335.742188 516.632812 336.570312 515.652344 338.152344 Z M 545.839844 356.445312 C 550.128906 358.328125 554.042969 359.679688 554.570312 359.53125 C 555.097656 359.304688 555.550781 358.402344 555.550781 357.574219 C 555.550781 356.671875 555.925781 356.21875 556.300781 356.445312 C 557.355469 357.121094 562.472656 365.175781 562.097656 365.554688 C 561.644531 366.003906 552.238281 367.960938 551.9375 367.734375 C 551.785156 367.585938 552.011719 366.757812 552.539062 365.929688 C 553.289062 364.5 552.988281 364.199219 549.375 362.617188 C 547.195312 361.636719 543.277344 360.058594 540.71875 359.15625 C 538.085938 358.175781 535.976562 357.199219 535.976562 356.894531 C 536.050781 355.542969 536.957031 353.058594 537.484375 353.058594 C 537.785156 353.058594 541.546875 354.5625 545.839844 356.445312 Z M 524.6875 356.59375 C 524.6875 356.820312 524.160156 357.722656 523.40625 358.476562 C 522.730469 359.230469 522.351562 359.90625 522.503906 360.058594 C 522.652344 360.132812 526.71875 361.789062 531.460938 363.746094 C 536.203125 365.628906 540.191406 367.511719 540.269531 367.886719 C 540.417969 368.261719 540.042969 369.167969 539.515625 369.917969 C 538.613281 371.199219 538.085938 371.046875 530.105469 367.8125 C 525.515625 365.929688 521.523438 364.347656 521.296875 364.347656 C 521.074219 364.347656 520.546875 365.25 520.09375 366.382812 C 519.265625 368.640625 519.191406 368.640625 515.351562 361.941406 L 513.320312 358.402344 L 515.050781 357.949219 C 516.632812 357.574219 522.804688 356.371094 524.160156 356.144531 C 524.460938 356.066406 524.6875 356.292969 524.6875 356.59375 Z M 524.6875 356.59375 " fill-opacity="1" fill-rule="nonzero"/><path fill="#004aad" d="M 514.898438 378.652344 C 514.898438 379.027344 511.285156 388.964844 506.921875 400.632812 C 502.554688 412.375 498.941406 422.234375 498.867188 422.535156 C 498.792969 422.914062 501.953125 424.34375 505.867188 425.773438 C 512.867188 428.332031 534.472656 435.859375 534.847656 435.859375 C 535 435.859375 536.65625 431.71875 538.613281 426.601562 C 540.570312 421.558594 544.410156 411.921875 547.042969 405.148438 C 549.753906 398.375 551.785156 392.726562 551.632812 392.652344 C 551.183594 392.199219 544.03125 389.191406 543.503906 389.191406 C 543.203125 389.191406 542.226562 391.296875 541.246094 393.855469 C 540.34375 396.492188 538.160156 401.988281 536.355469 406.125 C 534.621094 410.265625 532.214844 415.914062 531.085938 418.621094 L 529.050781 423.664062 L 520.019531 420.65625 C 512.566406 418.171875 511.136719 417.417969 511.511719 416.363281 C 512.867188 413.050781 523.933594 382.113281 523.933594 381.660156 C 523.933594 381.058594 517.007812 377.898438 515.726562 377.898438 C 515.277344 377.898438 514.898438 378.199219 514.898438 378.652344 Z M 514.898438 378.652344 " fill-opacity="1" fill-rule="nonzero"/><path fill="#004aad" d="M 397.695312 415.308594 L 389.941406 415.609375 L 389.941406 423.816406 L 408.082031 423.816406 L 407.859375 419.527344 C 407.707031 416.289062 407.332031 415.160156 406.503906 415.160156 C 405.902344 415.085938 401.910156 415.234375 397.695312 415.308594 Z M 397.695312 415.308594 " fill-opacity="1" fill-rule="nonzero"/><path fill="#004aad" d="M 431.117188 415.308594 C 430.816406 415.535156 430.589844 417.417969 430.589844 419.375 L 430.589844 422.988281 L 433.074219 422.613281 C 439.773438 421.40625 447.152344 417.71875 447.152344 415.460938 C 447.152344 414.707031 431.871094 414.480469 431.117188 415.308594 Z M 431.117188 415.308594 " fill-opacity="1" fill-rule="nonzero"/><path fill="#004aad" d="M 410.265625 419.675781 L 410.265625 423.816406 L 428.332031 423.816406 L 428.332031 415.535156 L 410.265625 415.535156 Z M 410.265625 419.675781 " fill-opacity="1" fill-rule="nonzero"/><path fill="#004aad" d="M 446.398438 420.957031 C 443.3125 422.914062 439.472656 424.34375 433.375 425.699219 L 431.195312 426.148438 L 431.496094 436.460938 C 431.796875 448.355469 432.773438 451.441406 438.269531 457.390625 C 441.957031 461.453125 447.453125 465.21875 449.710938 465.21875 C 451.894531 465.21875 458.066406 461.003906 461.378906 457.238281 C 466.800781 451.066406 467.703125 448.128906 468.078125 436.085938 L 468.378906 425.472656 L 464.765625 424.871094 C 459.949219 424.191406 455.734375 422.6875 452.421875 420.503906 L 449.785156 418.773438 Z M 451.519531 428.558594 C 452.648438 430.289062 453.175781 432.171875 453.175781 434.582031 C 453.175781 438.644531 454.453125 440 455.132812 436.613281 C 455.65625 434.128906 456.9375 432.773438 456.9375 434.730469 C 456.9375 435.410156 457.765625 437.066406 458.820312 438.496094 C 462.433594 443.164062 462.28125 448.355469 458.367188 452.796875 C 455.65625 455.882812 454.378906 456.261719 455.507812 453.625 C 456.035156 452.570312 456.183594 450.613281 455.882812 449.035156 C 455.355469 446.550781 455.207031 446.398438 454.378906 447.601562 C 453.476562 448.808594 453.175781 448.582031 451.367188 445.496094 C 450.3125 443.6875 449.410156 441.507812 449.335938 440.679688 C 449.257812 438.722656 447.226562 443.164062 447.152344 445.421875 C 447.152344 447.226562 445.644531 447.90625 445.644531 446.171875 C 445.644531 445.644531 445.121094 445.871094 444.515625 446.699219 C 443.238281 448.429688 443.085938 451.894531 444.140625 454 C 445.34375 456.109375 443.839844 455.808594 441.054688 453.324219 C 437.742188 450.3125 437.214844 445.042969 439.699219 439.925781 C 441.507812 436.460938 441.507812 436.386719 442.183594 438.269531 C 442.859375 440.152344 443.011719 439.925781 445.269531 435.183594 C 446.550781 432.472656 447.90625 429.3125 448.207031 428.105469 C 448.808594 425.472656 449.410156 425.546875 451.519531 428.558594 Z M 451.519531 428.558594 " fill-opacity="1" fill-rule="nonzero"/><path fill="#004aad" d="M 389.941406 430.214844 L 389.941406 434.355469 L 398.222656 434.355469 L 398.222656 426.074219 L 389.941406 426.074219 Z M 389.941406 430.214844 " fill-opacity="1" fill-rule="nonzero"/><path fill="#004aad" d="M 400.480469 430.214844 L 400.480469 434.355469 L 418.546875 434.355469 L 418.546875 426.074219 L 400.480469 426.074219 Z M 400.480469 430.214844 " fill-opacity="1" fill-rule="nonzero"/><path fill="#004aad" d="M 420.804688 430.214844 L 420.804688 434.355469 L 428.183594 434.355469 L 428.484375 430.515625 C 428.558594 428.40625 428.558594 426.527344 428.410156 426.375 C 428.257812 426.226562 426.449219 426.074219 424.417969 426.074219 L 420.804688 426.074219 Z M 420.804688 430.214844 " fill-opacity="1" fill-rule="nonzero"/><path fill="#004aad" d="M 389.941406 440.753906 L 389.941406 444.894531 L 408.007812 444.894531 L 408.007812 436.613281 L 389.941406 436.613281 Z M 389.941406 440.753906 " fill-opacity="1" fill-rule="nonzero"/><path fill="#004aad" d="M 410.265625 440.753906 L 410.265625 444.894531 L 427.957031 444.894531 L 427.730469 440.753906 L 427.429688 436.613281 L 410.265625 436.613281 Z M 410.265625 440.753906 " fill-opacity="1" fill-rule="nonzero"/><path fill="#004aad" d="M 389.941406 451.59375 L 389.941406 456.183594 L 392.425781 456.183594 C 397.695312 456.183594 398.296875 455.65625 398.070312 451.367188 L 397.847656 447.527344 L 393.933594 447.300781 L 389.941406 447.078125 Z M 389.941406 451.59375 " fill-opacity="1" fill-rule="nonzero"/><path fill="#004aad" d="M 400.480469 451.667969 L 400.480469 456.261719 L 409.363281 456.035156 L 418.171875 455.808594 L 418.171875 447.527344 L 409.363281 447.300781 L 400.480469 447.078125 Z M 400.480469 451.667969 " fill-opacity="1" fill-rule="nonzero"/><path fill="#004aad" d="M 420.65625 451.292969 C 420.578125 453.625 420.578125 455.734375 420.730469 455.882812 C 420.878906 456.035156 423.664062 456.183594 426.902344 456.183594 L 432.699219 456.183594 L 430.890625 451.820312 L 429.160156 447.527344 L 425.097656 447.300781 L 420.957031 447.078125 Z M 420.65625 451.292969 " fill-opacity="1" fill-rule="nonzero"/><path fill="#004aad" d="M 389.941406 462.207031 L 389.941406 466.722656 L 408.082031 466.722656 L 407.859375 462.359375 L 407.632812 458.066406 L 398.824219 457.839844 L 389.941406 457.613281 Z M 389.941406 462.207031 " fill-opacity="1" fill-rule="nonzero"/><path fill="#004aad" d="M 413.878906 458.292969 L 410.265625 458.519531 L 410.265625 466.722656 L 428.332031 466.722656 L 428.332031 458.59375 L 424.042969 458.140625 C 421.632812 457.917969 419.148438 457.839844 418.546875 457.917969 C 417.945312 457.992188 415.835938 458.140625 413.878906 458.292969 Z M 413.878906 458.292969 " fill-opacity="1" fill-rule="nonzero"/><path fill="#004aad" d="M 430.589844 462.582031 L 430.589844 466.722656 L 437.59375 466.722656 L 444.515625 466.648438 L 442.257812 464.992188 C 441.054688 464.089844 438.796875 462.207031 437.289062 460.925781 C 435.632812 459.421875 433.753906 458.441406 432.546875 458.441406 C 430.667969 458.441406 430.589844 458.59375 430.589844 462.582031 Z M 430.589844 462.582031 " fill-opacity="1" fill-rule="nonzero"/><path fill="#004aad" d="M 440.679688 470.863281 C 425.773438 474.101562 412.222656 485.089844 405.449219 499.394531 C 400.179688 510.457031 399.351562 514.597656 399.351562 529.203125 C 399.351562 540.644531 399.578125 543.128906 401.082031 548.398438 C 407.179688 569.476562 421.933594 584.003906 441.507812 587.992188 C 453.097656 590.402344 461.90625 589.574219 472.820312 584.980469 C 493.523438 576.324219 505.640625 554.042969 504.511719 526.71875 L 504.363281 523.933594 L 476.359375 524.082031 L 448.28125 524.308594 L 448.054688 531.234375 L 447.828125 538.234375 L 488.554688 538.234375 L 488.554688 540.117188 C 488.554688 543.429688 484.414062 554.34375 481.476562 558.785156 C 474.023438 570.003906 461.078125 575.722656 447.753906 573.613281 C 431.042969 571.054688 419.902344 559.386719 415.988281 540.34375 C 410.867188 515.652344 423.140625 491.039062 443.164062 485.769531 C 446.097656 485.015625 449.863281 484.714844 454.753906 484.941406 C 461.003906 485.167969 462.582031 485.542969 466.800781 487.574219 C 472.371094 490.359375 478.691406 496.308594 481.554688 501.5 L 483.511719 505.113281 L 492.46875 505.113281 C 497.359375 505.113281 501.351562 504.964844 501.351562 504.738281 C 501.351562 503.609375 495.554688 492.917969 492.84375 489.082031 C 486.898438 480.574219 475.378906 473.199219 464.617188 470.863281 C 457.992188 469.507812 447 469.507812 440.679688 470.863281 Z M 440.679688 470.863281 " fill-opacity="1" fill-rule="nonzero"/><path fill="#004aad" d="M 199.117188 497.738281 C 198.890625 498.265625 198.816406 517.535156 198.890625 540.492188 L 199.117188 582.273438 L 216.429688 582.273438 L 216.429688 541.246094 C 216.429688 518.664062 216.355469 499.46875 216.207031 498.488281 C 215.90625 496.910156 215.605469 496.832031 207.699219 496.832031 C 201.753906 496.832031 199.34375 497.136719 199.117188 497.738281 Z M 199.117188 497.738281 " fill-opacity="1" fill-rule="nonzero"/><path fill="#004aad" d="M 230.359375 539.742188 L 230.359375 582.648438 L 270.253906 582.648438 L 270.253906 566.085938 L 247.671875 566.085938 L 247.671875 496.832031 L 230.359375 496.832031 Z M 230.359375 539.742188 " fill-opacity="1" fill-rule="nonzero"/><path fill="#004aad" d="M 277.933594 539.515625 L 278.15625 582.273438 L 318.054688 582.273438 L 318.054688 566.464844 L 306.988281 566.238281 L 295.847656 566.011719 L 295.695312 531.609375 L 295.472656 497.210938 L 286.589844 496.984375 L 277.78125 496.757812 Z M 277.933594 539.515625 " fill-opacity="1" fill-rule="nonzero"/><path fill="#004aad" d="M 341.464844 497.4375 C 340.9375 498.265625 319.9375 580.992188 319.9375 582.195312 C 319.9375 582.421875 324 582.648438 328.894531 582.648438 L 337.851562 582.648438 L 338.605469 579.035156 C 339.054688 577.078125 339.808594 573.390625 340.335938 570.753906 L 341.3125 566.085938 L 362.015625 566.085938 L 362.769531 568.871094 C 363.21875 570.453125 364.046875 574.21875 364.726562 577.152344 L 366.003906 582.648438 L 375.339844 582.648438 C 383.996094 582.648438 384.75 582.574219 384.371094 581.292969 C 384.144531 580.617188 383.242188 577.152344 382.414062 573.613281 C 381.585938 570.078125 376.917969 551.484375 372.027344 532.214844 L 363.144531 497.210938 L 352.53125 496.984375 C 346.660156 496.910156 341.691406 497.058594 341.464844 497.4375 Z M 355.765625 533.417969 C 357.574219 542.375 359.078125 550.355469 359.078125 551.183594 C 359.078125 552.386719 358.402344 552.539062 351.550781 552.539062 C 347.410156 552.539062 344.023438 552.3125 344.023438 552.011719 C 344.023438 551.632812 349.894531 523.707031 351.25 517.988281 C 351.476562 517.007812 351.777344 516.40625 352.003906 516.632812 C 352.230469 516.855469 353.886719 524.386719 355.765625 533.417969 Z M 355.765625 533.417969 " fill-opacity="1" fill-rule="nonzero"/><path fill="#004aad" d="M 518.8125 539.515625 L 519.039062 582.273438 L 536.355469 582.273438 L 536.578125 565.109375 L 536.730469 548.019531 L 540.117188 548.019531 C 542 548.019531 543.503906 548.398438 543.503906 548.773438 C 543.503906 549.902344 554.945312 580.617188 555.773438 581.667969 C 556.679688 582.949219 574.367188 583.023438 574.367188 581.820312 C 574.367188 581.367188 571.132812 573.011719 567.214844 563.226562 C 563.300781 553.441406 560.066406 545.160156 560.066406 544.710938 C 560.140625 544.257812 561.195312 543.203125 562.472656 542.375 C 565.710938 540.34375 569.625 535.074219 570.753906 531.234375 C 571.207031 529.503906 571.65625 524.988281 571.65625 521.296875 C 571.734375 515.578125 571.433594 513.921875 569.777344 510.382812 C 566.464844 503.382812 561.34375 499.316406 553.441406 497.660156 C 551.257812 497.210938 542.601562 496.832031 534.019531 496.832031 L 518.664062 496.832031 Z M 548.773438 512.867188 C 551.859375 514.449219 554.042969 518.4375 554.042969 522.578125 C 554.042969 530.785156 550.28125 534.472656 541.847656 534.472656 L 536.730469 534.472656 L 536.730469 511.890625 L 541.847656 511.890625 C 544.632812 511.890625 547.71875 512.339844 548.773438 512.867188 Z M 548.773438 512.867188 " fill-opacity="1" fill-rule="nonzero"/><path fill="#004aad" d="M 583.550781 539.515625 L 583.777344 582.273438 L 605.082031 582.496094 L 626.308594 582.648438 L 626.308594 566.839844 L 613.8125 566.691406 L 601.316406 566.464844 L 601.089844 556.074219 L 600.863281 545.761719 L 623.296875 545.761719 L 623.296875 530.707031 L 601.617188 530.707031 L 601.316406 522.953125 C 601.167969 518.738281 601.167969 514.675781 601.316406 513.921875 C 601.617188 512.792969 602.820312 512.640625 613.660156 512.640625 L 625.628906 512.640625 L 625.40625 504.886719 L 625.179688 497.210938 L 604.253906 496.984375 L 583.402344 496.832031 Z M 583.550781 539.515625 " fill-opacity="1" fill-rule="nonzero"/><path fill="#004aad" d="M 637.601562 539.664062 L 637.601562 582.648438 L 654.914062 582.648438 L 654.914062 551.257812 L 662.667969 550.804688 C 672.601562 550.28125 677.949219 548.324219 682.765625 543.503906 C 687.960938 538.386719 689.765625 533.117188 689.839844 523.558594 C 689.839844 511.136719 686.152344 504.210938 676.894531 499.695312 L 671.851562 497.210938 L 654.761719 496.910156 L 637.601562 496.683594 Z M 667.785156 513.019531 C 671.246094 514.824219 672.980469 518.289062 672.980469 523.40625 C 672.980469 532.289062 669.214844 535.976562 660.257812 535.976562 L 654.914062 535.976562 L 654.914062 511.890625 L 660.183594 511.890625 C 663.570312 511.890625 666.355469 512.339844 667.785156 513.019531 Z M 667.785156 513.019531 " fill-opacity="1" fill-rule="nonzero"/><path fill="#004aad" d="M 700.078125 539.742188 L 700.078125 582.648438 L 717.390625 582.648438 L 717.390625 551.03125 L 723.039062 551.03125 C 737.191406 551.03125 745.546875 546.589844 750.289062 536.355469 C 752.167969 532.289062 752.394531 531.007812 752.394531 523.933594 C 752.394531 511.511719 748.855469 504.363281 740.804688 500.222656 C 735.457031 497.585938 729.8125 496.832031 714.230469 496.832031 L 700.078125 496.832031 Z M 731.242188 513.46875 C 734.179688 515.804688 735.457031 518.8125 735.457031 523.558594 C 735.457031 532.515625 731.921875 535.976562 722.886719 535.976562 L 717.390625 535.976562 L 717.390625 511.890625 L 723.339844 511.890625 C 728.15625 511.890625 729.585938 512.191406 731.242188 513.46875 Z M 731.242188 513.46875 " fill-opacity="1" fill-rule="nonzero"/><path fill="#004aad" d="M 763.085938 497.359375 C 762.785156 497.585938 762.558594 516.933594 762.558594 540.269531 L 762.558594 582.648438 L 780.625 582.648438 L 780.625 496.832031 L 772.117188 496.832031 C 767.375 496.832031 763.308594 497.058594 763.085938 497.359375 Z M 763.085938 497.359375 " fill-opacity="1" fill-rule="nonzero"/><path fill="#004aad" d="M 307.289062 600.714844 C 302.472656 601.769531 296.601562 605.230469 294.117188 608.617188 C 290.652344 613.4375 289.675781 616.445312 289.601562 622.542969 C 289.601562 629.019531 291.558594 633.910156 296 638.050781 C 301.042969 642.867188 304.429688 644 313.160156 644 C 320.160156 644 321.515625 643.773438 325.429688 641.964844 L 329.722656 639.933594 L 329.722656 622.542969 L 323.699219 622.542969 L 323.699219 636.019531 L 321.289062 637.375 C 317.675781 639.253906 309.171875 639.03125 305.105469 636.996094 C 294.945312 631.804688 293.0625 618.328125 301.417969 610.652344 C 307.816406 604.78125 316.847656 604.476562 324.601562 609.972656 C 325.730469 610.726562 326.257812 610.5 327.992188 608.769531 L 330.097656 606.660156 L 327.839844 604.78125 C 323.324219 601.167969 313.988281 599.285156 307.289062 600.714844 Z M 307.289062 600.714844 " fill-opacity="1" fill-rule="nonzero"/><path fill="#004aad" d="M 456.335938 600.789062 C 449.183594 602.21875 444.894531 606.660156 444.894531 612.683594 C 444.894531 619.683594 448.128906 622.320312 460.703125 625.554688 C 470.261719 628.039062 473.722656 632.40625 469.28125 636.46875 C 465.519531 640.007812 456.710938 639.933594 450.164062 636.394531 C 446.097656 634.210938 445.34375 634.363281 444.515625 637.675781 C 443.914062 640.082031 444.894531 640.910156 450.539062 642.867188 C 457.089844 645.128906 466.046875 644.976562 470.9375 642.492188 C 475.230469 640.386719 478.015625 636.320312 478.015625 632.253906 C 477.941406 626.082031 473.800781 622.695312 462.734375 619.683594 C 458.292969 618.480469 454.003906 616.898438 453.175781 616.144531 C 451.667969 614.792969 451.140625 610.953125 452.269531 609.296875 C 454.453125 605.910156 463.9375 604.929688 469.660156 607.488281 C 471.464844 608.316406 473.199219 608.996094 473.5 608.996094 C 474.476562 608.996094 476.058594 604.476562 475.304688 603.800781 C 472.671875 601.390625 461.832031 599.660156 456.335938 600.789062 Z M 456.335938 600.789062 " fill-opacity="1" fill-rule="nonzero"/><path fill="#004aad" d="M 514.375 600.789062 C 507.449219 602.144531 502.101562 605.984375 498.714844 612.082031 C 496.683594 615.695312 496.457031 616.824219 496.457031 622.542969 C 496.457031 630.296875 497.886719 633.460938 503.609375 638.578125 C 508.351562 642.792969 512.71875 644.375 520.09375 644.375 C 526.417969 644.375 531.085938 642.71875 534.699219 639.253906 L 536.804688 637.296875 L 534.699219 635.265625 L 532.589844 633.308594 L 529.957031 635.339844 C 516.480469 645.957031 496.984375 630.597656 504.4375 615.242188 C 508.953125 605.910156 522.203125 602.972656 530.03125 609.523438 L 532.4375 611.554688 L 534.171875 609.445312 C 535.148438 608.316406 535.976562 607.113281 535.976562 606.738281 C 535.976562 605.382812 529.878906 601.996094 525.664062 601.015625 C 520.847656 599.886719 519.039062 599.8125 514.375 600.789062 Z M 514.375 600.789062 " fill-opacity="1" fill-rule="nonzero"/><path fill="#004aad" d="M 635.566406 600.714844 C 628.71875 602.144531 622.46875 607.113281 619.609375 613.511719 C 617.652344 617.726562 617.5 625.328125 619.308594 630.523438 C 620.964844 635.492188 626.457031 640.761719 632.105469 642.867188 C 637.824219 645.050781 647.613281 644.75 652.355469 642.34375 C 657.019531 639.859375 661.386719 635.039062 663.269531 630.222656 C 667.410156 619.15625 661.3125 605.605469 650.472656 601.84375 C 646.105469 600.339844 639.632812 599.8125 635.566406 600.714844 Z M 646.707031 606.8125 C 652.804688 608.917969 657.925781 615.695312 657.925781 621.792969 C 657.925781 632.179688 649.117188 640.007812 638.878906 638.652344 C 630.523438 637.523438 624.804688 630.824219 624.804688 622.015625 C 624.804688 616.597656 625.78125 614.265625 629.46875 610.726562 C 634.0625 606.285156 640.6875 604.855469 646.707031 606.8125 Z M 646.707031 606.8125 " fill-opacity="1" fill-rule="nonzero"/><path fill="#004aad" d="M 700.378906 600.941406 C 687.882812 604.175781 680.957031 616.371094 684.648438 629.019531 C 685.699219 632.632812 686.679688 634.210938 690.21875 637.675781 C 695.863281 643.171875 700.078125 644.675781 708.660156 644.222656 C 717.84375 643.695312 723.941406 640.082031 727.78125 632.78125 C 729.511719 629.46875 729.8125 628.039062 729.8125 622.167969 C 729.8125 616.144531 729.585938 615.015625 727.78125 611.855469 C 722.433594 602.820312 711.070312 598.230469 700.378906 600.941406 Z M 712.347656 606.8125 C 721.609375 609.371094 726.046875 620.664062 721.457031 629.921875 C 714.230469 644.375 692.476562 640.308594 690.519531 624.199219 C 689.992188 619.535156 691.195312 615.316406 694.207031 611.703125 C 698.347656 606.660156 705.199219 604.78125 712.347656 606.8125 Z M 712.347656 606.8125 " fill-opacity="1" fill-rule="nonzero"/><path fill="#004aad" d="M 197.386719 622.320312 L 197.613281 644 L 200.847656 644.222656 L 204.011719 644.449219 L 204.011719 624.804688 L 228.777344 624.804688 L 229.003906 634.363281 L 229.226562 644 L 232.464844 644.222656 L 235.625 644.449219 L 235.625 600.714844 L 228.851562 600.714844 L 228.851562 618.78125 L 204.011719 618.78125 L 204.011719 600.714844 L 197.234375 600.714844 Z M 197.386719 622.320312 " fill-opacity="1" fill-rule="nonzero"/><path fill="#004aad" d="M 260.917969 614.113281 C 260.996094 621.414062 261.070312 631.277344 261.144531 635.867188 L 261.21875 644.375 L 267.242188 644.375 L 267.242188 600.714844 L 260.84375 600.714844 Z M 260.917969 614.113281 " fill-opacity="1" fill-rule="nonzero"/><path fill="#004aad" d="M 353.734375 614.039062 C 353.660156 621.414062 353.660156 629.46875 353.660156 631.953125 C 353.734375 634.4375 353.734375 638.277344 353.734375 640.386719 L 353.808594 644.375 L 359.757812 644.375 L 359.984375 634.511719 L 360.207031 624.726562 L 372.101562 624.726562 C 378.652344 624.652344 384.222656 624.878906 384.523438 625.105469 C 384.75 625.40625 384.972656 629.695312 384.972656 634.8125 L 385.050781 644 L 388.285156 644.222656 L 391.449219 644.449219 L 391.597656 623.75 C 391.597656 612.308594 391.671875 602.519531 391.75 601.996094 C 391.824219 601.46875 390.542969 601.015625 388.285156 600.863281 L 384.75 600.640625 L 385.199219 609.671875 L 385.578125 618.78125 L 359.832031 618.78125 L 359.832031 600.714844 L 353.808594 600.714844 Z M 353.734375 614.039062 " fill-opacity="1" fill-rule="nonzero"/><path fill="#004aad" d="M 557.730469 602.746094 C 557.730469 603.953125 557.65625 613.660156 557.582031 624.425781 L 557.429688 644 L 560.667969 644.222656 L 563.828125 644.449219 L 563.828125 624.804688 L 576.476562 624.953125 L 589.046875 625.179688 L 589.046875 644 L 592.285156 644.222656 L 595.445312 644.449219 L 595.519531 624.652344 C 595.597656 613.738281 595.671875 604.027344 595.746094 602.972656 C 595.820312 601.242188 595.519531 601.089844 592.132812 600.863281 L 588.445312 600.640625 L 588.894531 609.671875 L 589.347656 618.78125 L 563.828125 618.78125 L 563.828125 600.714844 L 560.816406 600.714844 C 558.03125 600.714844 557.808594 600.863281 557.730469 602.746094 Z M 557.730469 602.746094 " fill-opacity="1" fill-rule="nonzero"/><path fill="#004aad" d="M 752.167969 622.320312 L 752.394531 644 L 767.300781 644.222656 L 782.128906 644.375 L 782.128906 638.351562 L 758.792969 638.351562 L 758.792969 600.714844 L 752.019531 600.714844 Z M 752.167969 622.320312 " fill-opacity="1" fill-rule="nonzero"/><path fill="#004aad" d="M 292.160156 664.019531 C 288.320312 665.226562 285.988281 667.03125 284.855469 669.742188 C 283.125 673.808594 283.503906 676.441406 286.289062 679.453125 C 288.320312 681.710938 289.902344 682.464844 295.394531 683.96875 C 299.007812 684.871094 302.847656 686.226562 303.828125 686.90625 C 306.160156 688.410156 306.234375 691.796875 304.050781 693.753906 C 301.644531 695.9375 293.589844 695.710938 288.773438 693.378906 C 285.160156 691.574219 285.082031 691.574219 284.027344 693.003906 C 282.375 695.261719 283.203125 696.617188 287.566406 698.347656 C 292.988281 700.53125 301.492188 700.679688 305.484375 698.648438 C 309.621094 696.539062 311.054688 694.507812 311.503906 690.441406 C 311.730469 687.355469 311.503906 686.527344 309.847656 684.496094 C 307.816406 682.085938 302.472656 679.679688 296.976562 678.625 C 292.007812 677.722656 289.824219 676.292969 289.824219 673.730469 C 289.824219 671.097656 291.332031 669.515625 294.644531 668.613281 C 297.351562 667.859375 304.65625 668.6875 305.933594 669.96875 C 307.289062 671.324219 308.492188 670.796875 309.246094 668.539062 C 310 666.429688 309.925781 666.28125 306.914062 665.074219 C 303.074219 663.496094 295.621094 662.96875 292.160156 664.019531 Z M 292.160156 664.019531 " fill-opacity="1" fill-rule="nonzero"/><path fill="#004aad" d="M 413.503906 664.019531 C 409.363281 665.226562 405.824219 667.710938 403.566406 671.023438 C 400.855469 675.011719 400.40625 676.441406 400.40625 681.863281 C 400.332031 689.464844 403.945312 695.1875 410.644531 698.273438 C 417.117188 701.359375 427.503906 700.304688 431.871094 696.164062 C 433.980469 694.207031 433.980469 693.980469 431.71875 692.324219 C 429.988281 691.046875 429.839844 691.121094 427.203125 692.925781 C 423.664062 695.261719 420.355469 695.863281 416.4375 694.882812 C 410.191406 693.152344 406.277344 688.109375 406.277344 681.636719 C 406.277344 676.96875 407.859375 673.730469 411.546875 670.945312 C 413.878906 669.140625 415.007812 668.839844 419.222656 668.839844 C 423.441406 668.839844 424.644531 669.140625 427.203125 670.871094 L 430.214844 672.980469 L 432.097656 671.023438 L 433.980469 669.140625 L 431.71875 667.257812 C 427.429688 663.796875 419.300781 662.367188 413.503906 664.019531 Z M 413.503906 664.019531 " fill-opacity="1" fill-rule="nonzero"/><path fill="#004aad" d="M 550.054688 663.945312 C 539.816406 667.03125 538.234375 680.808594 547.71875 684.722656 C 551.410156 686.304688 557.65625 686.078125 561.042969 684.269531 C 562.550781 683.441406 563.980469 682.765625 564.128906 682.765625 C 564.734375 682.765625 562.925781 689.238281 561.871094 690.894531 C 559.164062 695.035156 553.441406 696.617188 548.019531 694.660156 C 545.839844 693.980469 545.386719 693.980469 544.484375 695.1875 C 543.957031 696.011719 543.503906 696.992188 543.503906 697.519531 C 543.503906 700.230469 556 701.058594 560.742188 698.574219 C 564.355469 696.765625 567.894531 692.625 569.023438 688.863281 C 570.078125 685.175781 570.078125 677.269531 569.023438 673.355469 C 566.992188 666.054688 557.957031 661.539062 550.054688 663.945312 Z M 558.9375 668.765625 C 565.863281 671.699219 563.90625 680.207031 556.152344 681.035156 C 547.796875 681.863281 543.957031 672.679688 551.109375 669.066406 C 554.195312 667.410156 555.550781 667.410156 558.9375 668.765625 Z M 558.9375 668.765625 " fill-opacity="1" fill-rule="nonzero"/><path fill="#004aad" d="M 327.464844 682.011719 L 327.464844 700.078125 L 333.484375 700.078125 L 333.484375 663.945312 L 327.464844 663.945312 Z M 327.464844 682.011719 " fill-opacity="1" fill-rule="nonzero"/><path fill="#004aad" d="M 352.304688 682.085938 L 352.304688 700.152344 L 355.164062 699.929688 L 357.949219 699.703125 L 357.800781 687.054688 C 357.722656 680.128906 357.875 674.484375 358.175781 674.484375 C 358.476562 674.558594 360.359375 676.667969 362.316406 679.226562 C 364.347656 681.785156 368.714844 687.28125 372.175781 691.421875 C 377.671875 698.121094 378.652344 698.949219 381.058594 699.175781 C 384.523438 699.476562 384.371094 700.378906 384.070312 679.90625 L 383.84375 663.945312 L 378.046875 663.945312 L 378.199219 676.367188 C 378.199219 683.214844 378.046875 688.789062 377.824219 688.789062 C 377.597656 688.789062 375.566406 686.527344 373.304688 683.667969 C 358.476562 665.074219 357.347656 663.945312 354.789062 663.945312 L 352.304688 663.945312 Z M 352.304688 682.085938 " fill-opacity="1" fill-rule="nonzero"/><path fill="#004aad" d="M 448.808594 681.785156 L 449.035156 699.703125 L 462.433594 699.929688 L 475.757812 700.078125 L 475.757812 694.808594 L 454.679688 694.808594 L 454.679688 683.519531 L 472.746094 683.519531 L 472.746094 679 L 454.679688 679 L 454.679688 668.460938 L 475.003906 668.460938 L 475.003906 663.945312 L 448.65625 663.945312 Z M 448.808594 681.785156 " fill-opacity="1" fill-rule="nonzero"/><path fill="#004aad" d="M 512.492188 666.203125 C 512.792969 668.386719 512.941406 668.460938 516.480469 668.460938 L 520.167969 668.460938 L 520.167969 700.152344 L 523.03125 699.929688 L 525.816406 699.703125 L 526.039062 681.785156 L 526.191406 663.945312 L 512.113281 663.945312 Z M 512.492188 666.203125 " fill-opacity="1" fill-rule="nonzero"/><path fill="#004aad" d="M 583.402344 669.214844 L 583.402344 674.484375 L 586.035156 674.484375 C 588.59375 674.484375 588.671875 674.410156 588.671875 671.472656 L 588.671875 668.460938 L 596.574219 668.460938 C 600.941406 668.460938 604.476562 668.613281 604.476562 668.6875 C 604.476562 668.839844 601.242188 675.613281 597.328125 683.742188 C 593.414062 691.875 590.175781 698.875 590.175781 699.324219 C 590.175781 700.980469 594.769531 700.078125 596.574219 698.121094 C 597.628906 696.992188 598.457031 695.789062 598.457031 695.488281 C 598.457031 695.1875 601.316406 688.710938 604.855469 681.183594 C 608.394531 673.65625 611.253906 666.65625 611.253906 665.675781 L 611.253906 663.945312 L 583.402344 663.945312 Z M 583.402344 669.214844 " fill-opacity="1" fill-rule="nonzero"/><path fill="#004aad" d="M 623.449219 665.980469 L 623.671875 668.085938 L 632.179688 668.3125 C 636.773438 668.386719 640.609375 668.6875 640.609375 668.914062 C 640.609375 669.140625 638.730469 671.625 636.46875 674.335938 C 633.609375 677.722656 632.332031 679.980469 632.332031 681.410156 C 632.332031 683.367188 632.480469 683.519531 635.71875 683.519531 C 640.082031 683.519531 642.566406 684.722656 643.695312 687.507812 C 646.480469 694.132812 636.019531 697.746094 627.589844 693.078125 C 624.726562 691.421875 624.652344 691.421875 623.597656 692.925781 C 622.996094 693.753906 622.621094 694.882812 622.695312 695.5625 C 623.070312 697.59375 628.566406 699.625 634.4375 699.929688 C 644.824219 700.53125 649.644531 696.992188 649.644531 688.863281 C 649.644531 685.324219 649.34375 684.570312 647.085938 682.3125 C 645.652344 680.882812 643.472656 679.527344 642.191406 679.300781 C 640.910156 679 639.859375 678.625 639.859375 678.324219 C 639.933594 678.097656 641.890625 675.613281 644.300781 672.753906 C 647.6875 668.765625 648.589844 667.257812 648.289062 665.828125 L 647.988281 663.945312 L 623.222656 663.945312 Z M 623.449219 665.980469 " fill-opacity="1" fill-rule="nonzero"/><path fill="#004aad" d="M 336.121094 303 C 334.914062 303.601562 330.398438 305.484375 326.183594 307.214844 C 321.894531 309.019531 318.429688 310.828125 318.429688 311.355469 C 318.429688 311.804688 320.160156 316.246094 322.269531 321.214844 L 326.03125 330.25 L 333.710938 327.011719 C 337.925781 325.203125 342.066406 323.699219 342.894531 323.699219 C 343.722656 323.699219 345.53125 324.378906 346.882812 325.203125 L 349.445312 326.785156 L 348.917969 325.203125 C 347.5625 320.914062 339.507812 302.246094 338.980469 302.09375 C 338.679688 302.019531 337.398438 302.472656 336.121094 303 Z M 336.121094 303 " fill-opacity="1" fill-rule="nonzero"/><path fill="#004aad" d="M 293.964844 320.386719 C 291.105469 321.742188 286.4375 323.773438 283.652344 324.902344 C 280.792969 326.03125 278.535156 327.238281 278.535156 327.539062 C 278.535156 328.214844 286.738281 347.1875 287.265625 347.710938 C 287.417969 347.863281 288.167969 347.488281 288.996094 346.734375 C 289.75 346.054688 294.191406 343.796875 298.859375 341.765625 C 303.527344 339.734375 307.515625 337.925781 307.664062 337.777344 C 307.890625 337.476562 301.042969 320.914062 299.761719 318.882812 C 299.386719 318.128906 297.957031 318.582031 293.964844 320.386719 Z M 293.964844 320.386719 " fill-opacity="1" fill-rule="nonzero"/><path fill="#004aad" d="M 319.9375 337.777344 C 308.117188 342.894531 297.503906 347.488281 296.222656 347.9375 C 292.835938 349.144531 291.332031 350.800781 291.332031 353.132812 C 291.332031 354.789062 295.546875 365.855469 301.871094 380.683594 C 303.148438 383.769531 305.484375 383.46875 315.417969 379.027344 C 320.613281 376.695312 327.238281 373.832031 330.097656 372.628906 C 338.679688 369.089844 352.152344 363.070312 354.789062 361.5625 C 356.371094 360.585938 357.273438 359.457031 357.421875 358.175781 C 357.574219 356.972656 355.390625 350.875 351.929688 342.667969 C 346.207031 329.195312 345.378906 327.992188 342.140625 328.292969 C 341.765625 328.367188 331.753906 332.582031 319.9375 337.777344 Z M 339.207031 338.90625 C 341.613281 339.355469 343.722656 339.808594 343.875 339.960938 C 344.25 340.183594 338.453125 349.292969 337.925781 349.292969 C 337.625 349.292969 337.175781 348.464844 336.949219 347.488281 L 336.496094 345.605469 L 327.765625 349.445312 C 320.539062 352.679688 318.957031 353.132812 318.355469 352.230469 C 317 350.046875 318.203125 348.992188 326.335938 345.453125 C 330.925781 343.421875 334.539062 341.539062 334.464844 341.238281 C 334.390625 340.863281 334.085938 340.035156 333.863281 339.28125 C 333.257812 337.777344 333.410156 337.777344 339.207031 338.90625 Z M 331.226562 358.25 C 331.226562 358.628906 331.378906 359.457031 331.605469 360.058594 C 331.90625 360.808594 329.796875 362.089844 323.925781 364.726562 C 319.484375 366.683594 315.496094 368.5625 315.195312 368.863281 C 314.816406 369.167969 314.890625 370.21875 315.417969 371.125 C 315.871094 372.027344 316.171875 372.855469 316.019531 373.003906 C 315.71875 373.230469 305.40625 371.199219 305.03125 370.746094 C 304.65625 370.445312 310 362.242188 310.976562 361.714844 C 311.277344 361.488281 311.804688 362.164062 312.105469 363.21875 C 312.332031 364.273438 312.632812 365.101562 312.710938 365.101562 C 312.785156 365.101562 316.625 363.445312 321.140625 361.335938 C 329.496094 357.574219 331.226562 357.046875 331.226562 358.25 Z M 331.226562 358.25 " fill-opacity="1" fill-rule="nonzero"/></svg>